<svg xmlns="http://www.w3.org/2000/svg" xmlns:xlink="http://www.w3.org/1999/xlink" width="2000" zoomAndPan="magnify" viewBox="0 0 1500 1499.999933" height="2000" preserveAspectRatio="xMidYMid meet" version="1.0"><defs><g/><clipPath id="95f0d98f03"><path d="M 180 633 L 480 633 L 480 906.929688 L 180 906.929688 Z M 180 633 " clip-rule="nonzero"/></clipPath><clipPath id="3dc2efe37c"><path d="M 421 812 L 480.261719 812 L 480.261719 872 L 421 872 Z M 421 812 " clip-rule="nonzero"/></clipPath></defs><g clip-path="url(#95f0d98f03)"><path fill="#6a0dad" d="M 208.492188 906.648438 C 204.832031 906.648438 201.027344 905.945312 197.503906 904.394531 C 183.132812 898.335938 176.511719 881.710938 182.570312 867.480469 L 258.652344 688.410156 C 259.917969 685.589844 261.46875 682.914062 263.582031 680.660156 L 264.285156 679.816406 C 270.628906 672.628906 280.207031 669.25 289.648438 670.796875 C 299.085938 672.347656 307.117188 678.546875 311.0625 687.28125 L 348.257812 771.816406 L 424.339844 646.847656 C 428.847656 639.378906 436.597656 634.449219 445.332031 633.460938 C 454.066406 632.476562 462.660156 635.714844 468.71875 641.914062 L 470.550781 643.886719 C 475.484375 649.101562 478.300781 655.863281 478.441406 663.050781 L 479.851562 764.914062 C 480.132812 780.410156 467.59375 793.234375 452.09375 793.515625 C 436.597656 793.796875 423.777344 781.257812 423.492188 765.757812 L 423.351562 756.601562 L 368.40625 846.910156 C 362.910156 855.929688 352.90625 861 342.480469 860.296875 C 332.054688 859.59375 322.757812 853.109375 318.53125 843.53125 L 285.5625 768.859375 L 234.277344 889.460938 C 229.769531 900.167969 219.34375 906.648438 208.492188 906.648438 Z M 208.492188 906.648438 " fill-opacity="1" fill-rule="nonzero"/></g><g clip-path="url(#3dc2efe37c)"><path fill="#6a0dad" d="M 480.414062 842.402344 C 480.414062 843.371094 480.367188 844.339844 480.273438 845.304688 C 480.175781 846.269531 480.035156 847.226562 479.84375 848.175781 C 479.65625 849.125 479.421875 850.066406 479.140625 850.992188 C 478.859375 851.917969 478.53125 852.832031 478.160156 853.726562 C 477.789062 854.621094 477.378906 855.496094 476.921875 856.351562 C 476.464844 857.207031 475.964844 858.035156 475.425781 858.839844 C 474.890625 859.648438 474.3125 860.425781 473.699219 861.171875 C 473.082031 861.921875 472.433594 862.640625 471.75 863.324219 C 471.0625 864.011719 470.347656 864.660156 469.597656 865.273438 C 468.847656 865.890625 468.070312 866.464844 467.265625 867.003906 C 466.457031 867.542969 465.628906 868.039062 464.773438 868.496094 C 463.917969 868.953125 463.042969 869.367188 462.148438 869.738281 C 461.253906 870.109375 460.34375 870.433594 459.414062 870.714844 C 458.488281 870.996094 457.550781 871.234375 456.597656 871.421875 C 455.648438 871.609375 454.691406 871.753906 453.726562 871.847656 C 452.761719 871.941406 451.796875 871.992188 450.828125 871.992188 C 449.859375 871.992188 448.890625 871.941406 447.925781 871.847656 C 446.960938 871.753906 446.003906 871.609375 445.054688 871.421875 C 444.105469 871.234375 443.164062 870.996094 442.238281 870.714844 C 441.3125 870.433594 440.398438 870.109375 439.503906 869.738281 C 438.609375 869.367188 437.734375 868.953125 436.878906 868.496094 C 436.023438 868.039062 435.195312 867.542969 434.390625 867.003906 C 433.582031 866.464844 432.804688 865.890625 432.058594 865.273438 C 431.308594 864.660156 430.589844 864.011719 429.90625 863.324219 C 429.21875 862.640625 428.570312 861.921875 427.957031 861.171875 C 427.339844 860.425781 426.765625 859.648438 426.226562 858.839844 C 425.6875 858.035156 425.191406 857.207031 424.734375 856.351562 C 424.277344 855.496094 423.863281 854.621094 423.492188 853.726562 C 423.121094 852.832031 422.796875 851.917969 422.515625 850.992188 C 422.234375 850.066406 421.996094 849.125 421.808594 848.175781 C 421.621094 847.226562 421.476562 846.269531 421.382812 845.304688 C 421.289062 844.339844 421.238281 843.371094 421.238281 842.402344 C 421.238281 841.433594 421.289062 840.46875 421.382812 839.503906 C 421.476562 838.539062 421.621094 837.582031 421.808594 836.632812 C 421.996094 835.679688 422.234375 834.742188 422.515625 833.816406 C 422.796875 832.886719 423.121094 831.976562 423.492188 831.082031 C 423.863281 830.1875 424.277344 829.3125 424.734375 828.457031 C 425.191406 827.601562 425.6875 826.769531 426.226562 825.964844 C 426.765625 825.160156 427.339844 824.382812 427.957031 823.632812 C 428.570312 822.882812 429.21875 822.167969 429.90625 821.480469 C 430.589844 820.796875 431.308594 820.148438 432.058594 819.53125 C 432.804688 818.917969 433.582031 818.339844 434.390625 817.800781 C 435.195312 817.265625 436.023438 816.765625 436.878906 816.308594 C 437.734375 815.851562 438.609375 815.4375 439.503906 815.070312 C 440.398438 814.699219 441.3125 814.371094 442.238281 814.089844 C 443.164062 813.808594 444.105469 813.574219 445.054688 813.386719 C 446.003906 813.195312 446.960938 813.054688 447.925781 812.957031 C 448.890625 812.863281 449.859375 812.816406 450.828125 812.816406 C 451.796875 812.816406 452.761719 812.863281 453.726562 812.957031 C 454.691406 813.054688 455.648438 813.195312 456.597656 813.386719 C 457.550781 813.574219 458.488281 813.808594 459.414062 814.089844 C 460.34375 814.371094 461.253906 814.699219 462.148438 815.070312 C 463.042969 815.4375 463.917969 815.851562 464.773438 816.308594 C 465.628906 816.765625 466.457031 817.265625 467.265625 817.800781 C 468.070312 818.339844 468.847656 818.917969 469.597656 819.53125 C 470.347656 820.148438 471.0625 820.796875 471.75 821.480469 C 472.433594 822.167969 473.082031 822.882812 473.699219 823.632812 C 474.3125 824.382812 474.890625 825.160156 475.425781 825.964844 C 475.964844 826.769531 476.464844 827.601562 476.921875 828.457031 C 477.378906 829.3125 477.789062 830.1875 478.160156 831.082031 C 478.53125 831.976562 478.859375 832.886719 479.140625 833.816406 C 479.421875 834.742188 479.65625 835.679688 479.84375 836.632812 C 480.035156 837.582031 480.175781 838.539062 480.273438 839.503906 C 480.367188 840.46875 480.414062 841.433594 480.414062 842.402344 Z M 480.414062 842.402344 " fill-opacity="1" fill-rule="nonzero"/></g><g fill="#ffffff" fill-opacity="1"><g transform="translate(518.252221, 826.461173)"><g><path d="M 95.625 2.984375 C 78.070312 2.984375 63.003906 -0.78125 50.421875 -8.3125 C 37.835938 -15.851562 28.148438 -26.367188 21.359375 -39.859375 C 14.566406 -53.359375 11.171875 -68.960938 11.171875 -86.671875 C 11.171875 -104.390625 14.566406 -120.035156 21.359375 -133.609375 C 28.148438 -147.191406 37.835938 -157.789062 50.421875 -165.40625 C 63.003906 -173.019531 78.070312 -176.828125 95.625 -176.828125 C 116.476562 -176.828125 133.566406 -171.648438 146.890625 -161.296875 C 160.222656 -150.953125 168.546875 -136.425781 171.859375 -117.71875 L 136.84375 -117.71875 C 134.695312 -127.15625 130.101562 -134.5625 123.0625 -139.9375 C 116.019531 -145.320312 106.707031 -148.015625 95.125 -148.015625 C 79.0625 -148.015625 66.476562 -142.550781 57.375 -131.625 C 48.269531 -120.695312 43.71875 -105.710938 43.71875 -86.671875 C 43.71875 -67.628906 48.269531 -52.6875 57.375 -41.84375 C 66.476562 -31 79.0625 -25.578125 95.125 -25.578125 C 106.707031 -25.578125 116.019531 -28.101562 123.0625 -33.15625 C 130.101562 -38.207031 134.695312 -45.203125 136.84375 -54.140625 L 171.859375 -54.140625 C 168.546875 -36.253906 160.222656 -22.257812 146.890625 -12.15625 C 133.566406 -2.0625 116.476562 2.984375 95.625 2.984375 Z M 95.625 2.984375 "/></g></g></g><g fill="#ffffff" fill-opacity="1"><g transform="translate(690.113273, 826.461173)"><g><path d="M 61.84375 0 L 61.84375 -61.84375 L 3.484375 -173.859375 L 39.484375 -173.859375 L 77.984375 -93.625 L 116.234375 -173.859375 L 151.75 -173.859375 L 93.625 -61.84375 L 93.625 0 Z M 61.84375 0 "/></g></g></g><g fill="#ffffff" fill-opacity="1"><g transform="translate(834.158614, 826.461173)"><g><path d="M 16.890625 0 L 16.890625 -173.859375 L 48.671875 -173.859375 L 130.390625 -51.40625 L 130.390625 -173.859375 L 162.171875 -173.859375 L 162.171875 0 L 130.390625 0 L 48.671875 -122.1875 L 48.671875 0 Z M 16.890625 0 "/></g></g></g><g fill="#ffffff" fill-opacity="1"><g transform="translate(1002.045987, 826.461173)"><g><path d="M 16.890625 0 L 16.890625 -173.859375 L 48.671875 -173.859375 L 48.671875 0 Z M 16.890625 0 "/></g></g></g><g fill="#ffffff" fill-opacity="1"><g transform="translate(1056.43531, 826.461173)"><g/></g></g><g fill="#ffffff" fill-opacity="1"><g transform="translate(1104.367419, 826.461173)"><g><path d="M 5.71875 0 L 69.296875 -173.859375 L 105.0625 -173.859375 L 168.640625 0 L 134.859375 0 L 120.953125 -40.234375 L 53.15625 -40.234375 L 39 0 Z M 61.84375 -65.0625 L 112.265625 -65.0625 L 86.921875 -137.34375 Z M 61.84375 -65.0625 "/></g></g></g><g fill="#ffffff" fill-opacity="1"><g transform="translate(1267.287693, 826.461173)"><g><path d="M 16.890625 0 L 16.890625 -173.859375 L 48.671875 -173.859375 L 48.671875 0 Z M 16.890625 0 "/></g></g></g></svg>