<svg xmlns="http://www.w3.org/2000/svg" xmlns:xlink="http://www.w3.org/1999/xlink" width="2000" zoomAndPan="magnify" viewBox="0 0 1500 1499.999933" height="2000" preserveAspectRatio="xMidYMid meet" version="1.0"><defs><clipPath id="7df67aa697"><path d="M 81 135 L 1433 135 L 1433 1368.289062 L 81 1368.289062 Z M 81 135 " clip-rule="nonzero"/></clipPath><clipPath id="bff4b100b8"><path d="M 1168 945 L 1434.976562 945 L 1434.976562 1212 L 1168 1212 Z M 1168 945 " clip-rule="nonzero"/></clipPath></defs><rect x="-150" width="1800" fill="#ffffff" y="-149.999993" height="1799.99992" fill-opacity="1"/><rect x="-150" width="1800" fill="#ffffff" y="-149.999993" height="1799.99992" fill-opacity="1"/><g clip-path="url(#7df67aa697)"><path fill="#672ddb" d="M 208.960938 1368.234375 C 192.441406 1368.234375 175.285156 1365.058594 159.398438 1358.066406 C 94.589844 1330.746094 64.726562 1255.769531 92.046875 1191.59375 L 435.160156 384.011719 C 440.878906 371.300781 447.867188 359.230469 457.398438 349.0625 L 460.574219 345.25 C 489.167969 312.847656 532.375 297.597656 574.945312 304.585938 C 617.519531 311.574219 653.734375 339.53125 671.527344 378.925781 L 839.269531 760.164062 L 1182.382812 196.570312 C 1202.714844 162.894531 1237.660156 140.65625 1277.054688 136.207031 C 1316.449219 131.757812 1355.210938 146.375 1382.53125 174.332031 L 1390.789062 183.226562 C 1413.03125 206.734375 1425.738281 237.234375 1426.375 269.640625 L 1432.726562 729.027344 C 1433.996094 798.921875 1377.449219 856.742188 1307.554688 858.015625 C 1237.660156 859.285156 1179.839844 802.734375 1178.570312 732.839844 L 1177.933594 691.539062 L 930.132812 1098.828125 C 905.351562 1139.492188 860.238281 1162.367188 813.21875 1159.191406 C 766.199219 1156.011719 724.265625 1126.785156 705.203125 1083.578125 L 556.519531 746.820312 L 325.238281 1290.714844 C 304.902344 1339.007812 257.886719 1368.234375 208.960938 1368.234375 Z M 208.960938 1368.234375 " fill-opacity="1" fill-rule="nonzero"/></g><g clip-path="url(#bff4b100b8)"><path fill="#672ddb" d="M 1435.269531 1078.496094 C 1435.269531 1080.679688 1435.214844 1082.859375 1435.109375 1085.042969 C 1435 1087.222656 1434.839844 1089.402344 1434.625 1091.574219 C 1434.410156 1093.746094 1434.144531 1095.914062 1433.824219 1098.074219 C 1433.503906 1100.234375 1433.128906 1102.382812 1432.703125 1104.527344 C 1432.277344 1106.667969 1431.800781 1108.796875 1431.269531 1110.917969 C 1430.738281 1113.035156 1430.15625 1115.136719 1429.523438 1117.226562 C 1428.890625 1119.316406 1428.203125 1121.390625 1427.46875 1123.445312 C 1426.734375 1125.503906 1425.945312 1127.539062 1425.109375 1129.558594 C 1424.277344 1131.574219 1423.390625 1133.570312 1422.457031 1135.542969 C 1421.523438 1137.519531 1420.542969 1139.46875 1419.511719 1141.394531 C 1418.484375 1143.320312 1417.40625 1145.21875 1416.285156 1147.09375 C 1415.160156 1148.964844 1413.992188 1150.808594 1412.78125 1152.625 C 1411.566406 1154.441406 1410.3125 1156.226562 1409.011719 1157.980469 C 1407.710938 1159.734375 1406.367188 1161.457031 1404.980469 1163.144531 C 1403.59375 1164.832031 1402.167969 1166.484375 1400.703125 1168.101562 C 1399.234375 1169.722656 1397.730469 1171.300781 1396.1875 1172.847656 C 1394.644531 1174.390625 1393.0625 1175.894531 1391.445312 1177.363281 C 1389.824219 1178.828125 1388.171875 1180.253906 1386.484375 1181.640625 C 1384.796875 1183.023438 1383.074219 1184.367188 1381.320312 1185.667969 C 1379.566406 1186.96875 1377.78125 1188.226562 1375.96875 1189.441406 C 1374.152344 1190.652344 1372.308594 1191.820312 1370.433594 1192.945312 C 1368.5625 1194.066406 1366.660156 1195.144531 1364.734375 1196.171875 C 1362.808594 1197.203125 1360.859375 1198.183594 1358.886719 1199.117188 C 1356.910156 1200.050781 1354.914062 1200.933594 1352.898438 1201.769531 C 1350.878906 1202.605469 1348.84375 1203.390625 1346.789062 1204.128906 C 1344.730469 1204.863281 1342.660156 1205.546875 1340.570312 1206.183594 C 1338.480469 1206.816406 1336.375 1207.398438 1334.257812 1207.929688 C 1332.140625 1208.460938 1330.007812 1208.9375 1327.867188 1209.363281 C 1325.726562 1209.789062 1323.574219 1210.164062 1321.414062 1210.484375 C 1319.253906 1210.804688 1317.085938 1211.070312 1314.914062 1211.285156 C 1312.742188 1211.5 1310.5625 1211.660156 1308.382812 1211.765625 C 1306.203125 1211.875 1304.019531 1211.925781 1301.835938 1211.925781 C 1299.652344 1211.925781 1297.46875 1211.875 1295.289062 1211.765625 C 1293.109375 1211.660156 1290.929688 1211.5 1288.757812 1211.285156 C 1286.585938 1211.070312 1284.417969 1210.804688 1282.257812 1210.484375 C 1280.097656 1210.164062 1277.945312 1209.789062 1275.804688 1209.363281 C 1273.664062 1208.9375 1271.53125 1208.460938 1269.414062 1207.929688 C 1267.296875 1207.398438 1265.191406 1206.816406 1263.101562 1206.183594 C 1261.011719 1205.546875 1258.941406 1204.863281 1256.882812 1204.128906 C 1254.828125 1203.390625 1252.789062 1202.605469 1250.773438 1201.769531 C 1248.757812 1200.933594 1246.761719 1200.050781 1244.785156 1199.117188 C 1242.8125 1198.183594 1240.863281 1197.203125 1238.9375 1196.171875 C 1237.011719 1195.144531 1235.109375 1194.066406 1233.238281 1192.945312 C 1231.363281 1191.820312 1229.519531 1190.652344 1227.703125 1189.441406 C 1225.890625 1188.226562 1224.105469 1186.96875 1222.351562 1185.667969 C 1220.597656 1184.367188 1218.875 1183.023438 1217.1875 1181.640625 C 1215.5 1180.253906 1213.847656 1178.828125 1212.226562 1177.363281 C 1210.609375 1175.894531 1209.027344 1174.390625 1207.484375 1172.847656 C 1205.941406 1171.300781 1204.433594 1169.71875 1202.96875 1168.101562 C 1201.503906 1166.484375 1200.078125 1164.832031 1198.691406 1163.144531 C 1197.304688 1161.457031 1195.960938 1159.734375 1194.660156 1157.980469 C 1193.359375 1156.226562 1192.105469 1154.441406 1190.890625 1152.625 C 1189.675781 1150.808594 1188.507812 1148.964844 1187.386719 1147.09375 C 1186.265625 1145.21875 1185.1875 1143.320312 1184.160156 1141.394531 C 1183.128906 1139.46875 1182.148438 1137.519531 1181.214844 1135.542969 C 1180.28125 1133.570312 1179.394531 1131.574219 1178.558594 1129.558594 C 1177.726562 1127.539062 1176.9375 1125.503906 1176.203125 1123.445312 C 1175.46875 1121.390625 1174.78125 1119.316406 1174.148438 1117.226562 C 1173.515625 1115.136719 1172.933594 1113.035156 1172.402344 1110.917969 C 1171.871094 1108.796875 1171.394531 1106.667969 1170.96875 1104.527344 C 1170.542969 1102.382812 1170.167969 1100.234375 1169.847656 1098.074219 C 1169.527344 1095.914062 1169.261719 1093.746094 1169.046875 1091.574219 C 1168.832031 1089.402344 1168.671875 1087.222656 1168.5625 1085.042969 C 1168.457031 1082.859375 1168.402344 1080.679688 1168.402344 1078.496094 C 1168.402344 1076.3125 1168.457031 1074.128906 1168.5625 1071.949219 C 1168.671875 1069.765625 1168.832031 1067.589844 1169.046875 1065.417969 C 1169.261719 1063.242188 1169.527344 1061.078125 1169.847656 1058.917969 C 1170.167969 1056.757812 1170.542969 1054.605469 1170.96875 1052.464844 C 1171.394531 1050.320312 1171.871094 1048.191406 1172.402344 1046.074219 C 1172.933594 1043.957031 1173.515625 1041.851562 1174.148438 1039.761719 C 1174.78125 1037.671875 1175.46875 1035.597656 1176.203125 1033.542969 C 1176.9375 1031.488281 1177.726562 1029.449219 1178.558594 1027.433594 C 1179.394531 1025.414062 1180.28125 1023.417969 1181.214844 1021.445312 C 1182.148438 1019.472656 1183.128906 1017.519531 1184.160156 1015.59375 C 1185.1875 1013.667969 1186.265625 1011.769531 1187.386719 1009.898438 C 1188.507812 1008.023438 1189.675781 1006.179688 1190.890625 1004.363281 C 1192.105469 1002.546875 1193.359375 1000.761719 1194.660156 999.007812 C 1195.960938 997.253906 1197.304688 995.535156 1198.691406 993.847656 C 1200.078125 992.15625 1201.503906 990.503906 1202.96875 988.886719 C 1204.433594 987.269531 1205.941406 985.6875 1207.484375 984.144531 C 1209.027344 982.597656 1210.609375 981.09375 1212.226562 979.628906 C 1213.847656 978.160156 1215.5 976.734375 1217.1875 975.351562 C 1218.875 973.964844 1220.597656 972.621094 1222.351562 971.320312 C 1224.105469 970.019531 1225.890625 968.761719 1227.703125 967.550781 C 1229.519531 966.335938 1231.363281 965.167969 1233.238281 964.046875 C 1235.109375 962.921875 1237.011719 961.847656 1238.9375 960.816406 C 1240.863281 959.789062 1242.8125 958.808594 1244.785156 957.875 C 1246.761719 956.941406 1248.757812 956.054688 1250.773438 955.21875 C 1252.789062 954.382812 1254.828125 953.597656 1256.882812 952.863281 C 1258.941406 952.125 1261.011719 951.441406 1263.101562 950.808594 C 1265.191406 950.175781 1267.296875 949.59375 1269.414062 949.0625 C 1271.53125 948.53125 1273.664062 948.050781 1275.804688 947.625 C 1277.945312 947.199219 1280.097656 946.828125 1282.257812 946.507812 C 1284.417969 946.1875 1286.585938 945.917969 1288.757812 945.703125 C 1290.929688 945.492188 1293.109375 945.332031 1295.289062 945.222656 C 1297.46875 945.117188 1299.652344 945.0625 1301.835938 945.0625 C 1304.019531 945.0625 1306.203125 945.117188 1308.382812 945.222656 C 1310.5625 945.332031 1312.742188 945.492188 1314.914062 945.703125 C 1317.085938 945.917969 1319.253906 946.1875 1321.414062 946.507812 C 1323.574219 946.828125 1325.726562 947.199219 1327.867188 947.625 C 1330.007812 948.050781 1332.140625 948.53125 1334.257812 949.0625 C 1336.375 949.59375 1338.480469 950.175781 1340.570312 950.808594 C 1342.660156 951.441406 1344.730469 952.125 1346.789062 952.863281 C 1348.84375 953.597656 1350.878906 954.382812 1352.898438 955.21875 C 1354.914062 956.054688 1356.910156 956.941406 1358.886719 957.875 C 1360.859375 958.808594 1362.808594 959.789062 1364.734375 960.816406 C 1366.660156 961.847656 1368.5625 962.921875 1370.433594 964.046875 C 1372.308594 965.167969 1374.152344 966.335938 1375.96875 967.550781 C 1377.78125 968.761719 1379.566406 970.019531 1381.320312 971.320312 C 1383.074219 972.621094 1384.796875 973.964844 1386.484375 975.351562 C 1388.171875 976.734375 1389.824219 978.160156 1391.445312 979.628906 C 1393.0625 981.09375 1394.644531 982.597656 1396.1875 984.144531 C 1397.730469 985.6875 1399.234375 987.269531 1400.703125 988.886719 C 1402.167969 990.503906 1403.59375 992.15625 1404.980469 993.847656 C 1406.367188 995.535156 1407.707031 997.253906 1409.007812 999.007812 C 1410.308594 1000.761719 1411.566406 1002.546875 1412.78125 1004.363281 C 1413.992188 1006.179688 1415.160156 1008.023438 1416.285156 1009.898438 C 1417.40625 1011.769531 1418.484375 1013.667969 1419.511719 1015.59375 C 1420.542969 1017.519531 1421.523438 1019.472656 1422.457031 1021.445312 C 1423.390625 1023.417969 1424.277344 1025.414062 1425.109375 1027.433594 C 1425.945312 1029.449219 1426.734375 1031.488281 1427.46875 1033.542969 C 1428.203125 1035.597656 1428.890625 1037.671875 1429.523438 1039.761719 C 1430.15625 1041.851562 1430.738281 1043.957031 1431.269531 1046.074219 C 1431.800781 1048.191406 1432.277344 1050.320312 1432.703125 1052.464844 C 1433.128906 1054.605469 1433.503906 1056.757812 1433.824219 1058.917969 C 1434.144531 1061.078125 1434.410156 1063.242188 1434.625 1065.417969 C 1434.839844 1067.589844 1435 1069.765625 1435.109375 1071.949219 C 1435.214844 1074.128906 1435.269531 1076.3125 1435.269531 1078.496094 Z M 1435.269531 1078.496094 " fill-opacity="1" fill-rule="nonzero"/></g></svg>