<svg xmlns="http://www.w3.org/2000/svg" xmlns:xlink="http://www.w3.org/1999/xlink" width="2000" zoomAndPan="magnify" viewBox="0 0 1500 1499.999933" height="2000" preserveAspectRatio="xMidYMid meet" version="1.0"><defs><clipPath id="c2fd31519f"><path d="M 1155 939 L 1414.929688 939 L 1414.929688 1199 L 1155 1199 Z M 1155 939 " clip-rule="nonzero"/></clipPath></defs><path fill="#672ddb" d="M 225.109375 1349.785156 C 209.082031 1349.785156 192.4375 1346.699219 177.027344 1339.921875 C 114.152344 1313.414062 85.179688 1240.675781 111.6875 1178.417969 L 444.558594 394.9375 C 450.105469 382.609375 456.886719 370.898438 466.132812 361.035156 L 469.214844 357.335938 C 496.953125 325.898438 538.871094 311.105469 580.171875 317.882812 C 621.472656 324.664062 656.609375 351.789062 673.867188 390.007812 L 836.605469 759.863281 L 1169.476562 213.09375 C 1189.199219 180.421875 1223.105469 158.847656 1261.324219 154.53125 C 1299.539062 150.214844 1337.144531 164.394531 1363.648438 191.515625 L 1371.664062 200.148438 C 1393.238281 222.953125 1405.566406 252.542969 1406.183594 283.980469 L 1412.347656 729.65625 C 1413.582031 797.464844 1358.71875 853.558594 1290.910156 854.792969 C 1223.105469 856.023438 1167.007812 801.164062 1165.777344 733.355469 L 1165.160156 693.289062 L 924.753906 1088.417969 C 900.714844 1127.871094 856.945312 1150.0625 811.332031 1146.980469 C 765.714844 1143.898438 725.03125 1115.542969 706.539062 1073.625 L 562.292969 746.917969 L 337.914062 1274.578125 C 318.191406 1321.425781 272.574219 1349.785156 225.109375 1349.785156 Z M 225.109375 1349.785156 " fill-opacity="1" fill-rule="nonzero"/><g clip-path="url(#c2fd31519f)"><path fill="#672ddb" d="M 1414.8125 1068.691406 C 1414.8125 1070.8125 1414.761719 1072.929688 1414.65625 1075.042969 C 1414.554688 1077.160156 1414.398438 1079.273438 1414.191406 1081.382812 C 1413.980469 1083.488281 1413.722656 1085.589844 1413.410156 1087.6875 C 1413.101562 1089.78125 1412.738281 1091.867188 1412.324219 1093.945312 C 1411.910156 1096.023438 1411.449219 1098.089844 1410.933594 1100.144531 C 1410.417969 1102.203125 1409.855469 1104.242188 1409.238281 1106.269531 C 1408.625 1108.296875 1407.960938 1110.308594 1407.246094 1112.304688 C 1406.53125 1114.296875 1405.769531 1116.273438 1404.957031 1118.230469 C 1404.148438 1120.1875 1403.289062 1122.125 1402.382812 1124.039062 C 1401.476562 1125.953125 1400.527344 1127.847656 1399.527344 1129.714844 C 1398.527344 1131.582031 1397.484375 1133.425781 1396.394531 1135.242188 C 1395.304688 1137.058594 1394.171875 1138.847656 1392.996094 1140.609375 C 1391.820312 1142.371094 1390.601562 1144.105469 1389.339844 1145.804688 C 1388.074219 1147.507812 1386.773438 1149.175781 1385.429688 1150.816406 C 1384.085938 1152.453125 1382.703125 1154.054688 1381.277344 1155.625 C 1379.855469 1157.195312 1378.394531 1158.730469 1376.898438 1160.226562 C 1375.398438 1161.726562 1373.867188 1163.1875 1372.296875 1164.609375 C 1370.726562 1166.03125 1369.121094 1167.414062 1367.484375 1168.757812 C 1365.847656 1170.101562 1364.175781 1171.40625 1362.476562 1172.667969 C 1360.773438 1173.929688 1359.042969 1175.148438 1357.28125 1176.324219 C 1355.519531 1177.503906 1353.730469 1178.636719 1351.914062 1179.726562 C 1350.097656 1180.8125 1348.253906 1181.859375 1346.386719 1182.855469 C 1344.515625 1183.855469 1342.625 1184.808594 1340.710938 1185.714844 C 1338.792969 1186.621094 1336.859375 1187.476562 1334.902344 1188.289062 C 1332.945312 1189.097656 1330.96875 1189.863281 1328.972656 1190.574219 C 1326.980469 1191.289062 1324.96875 1191.953125 1322.941406 1192.566406 C 1320.914062 1193.183594 1318.871094 1193.746094 1316.816406 1194.261719 C 1314.761719 1194.777344 1312.695312 1195.242188 1310.617188 1195.65625 C 1308.539062 1196.066406 1306.453125 1196.429688 1304.355469 1196.742188 C 1302.261719 1197.050781 1300.160156 1197.3125 1298.050781 1197.519531 C 1295.941406 1197.726562 1293.832031 1197.882812 1291.714844 1197.988281 C 1289.597656 1198.089844 1287.480469 1198.140625 1285.363281 1198.140625 C 1283.246094 1198.140625 1281.128906 1198.089844 1279.011719 1197.988281 C 1276.894531 1197.882812 1274.785156 1197.726562 1272.675781 1197.519531 C 1270.566406 1197.3125 1268.464844 1197.050781 1266.367188 1196.742188 C 1264.273438 1196.429688 1262.1875 1196.066406 1260.109375 1195.65625 C 1258.03125 1195.242188 1255.964844 1194.777344 1253.910156 1194.261719 C 1251.855469 1193.746094 1249.8125 1193.183594 1247.785156 1192.566406 C 1245.757812 1191.953125 1243.746094 1191.289062 1241.753906 1190.574219 C 1239.757812 1189.863281 1237.78125 1189.097656 1235.824219 1188.289062 C 1233.867188 1187.476562 1231.929688 1186.621094 1230.015625 1185.714844 C 1228.101562 1184.808594 1226.210938 1183.855469 1224.339844 1182.855469 C 1222.472656 1181.859375 1220.628906 1180.8125 1218.8125 1179.726562 C 1216.996094 1178.636719 1215.207031 1177.503906 1213.445312 1176.324219 C 1211.683594 1175.148438 1209.953125 1173.929688 1208.25 1172.667969 C 1206.546875 1171.40625 1204.878906 1170.101562 1203.242188 1168.757812 C 1201.601562 1167.414062 1200 1166.03125 1198.429688 1164.609375 C 1196.859375 1163.1875 1195.328125 1161.726562 1193.828125 1160.226562 C 1192.332031 1158.730469 1190.871094 1157.195312 1189.449219 1155.625 C 1188.023438 1154.054688 1186.640625 1152.453125 1185.296875 1150.8125 C 1183.953125 1149.175781 1182.648438 1147.507812 1181.386719 1145.804688 C 1180.125 1144.105469 1178.90625 1142.371094 1177.730469 1140.609375 C 1176.550781 1138.847656 1175.417969 1137.058594 1174.332031 1135.242188 C 1173.242188 1133.425781 1172.199219 1131.582031 1171.199219 1129.714844 C 1170.199219 1127.847656 1169.246094 1125.953125 1168.34375 1124.039062 C 1167.4375 1122.125 1166.578125 1120.1875 1165.765625 1118.230469 C 1164.957031 1116.273438 1164.195312 1114.296875 1163.480469 1112.304688 C 1162.765625 1110.308594 1162.101562 1108.296875 1161.488281 1106.269531 C 1160.871094 1104.242188 1160.308594 1102.203125 1159.792969 1100.144531 C 1159.277344 1098.089844 1158.8125 1096.023438 1158.402344 1093.945312 C 1157.988281 1091.867188 1157.625 1089.78125 1157.316406 1087.6875 C 1157.003906 1085.589844 1156.746094 1083.488281 1156.535156 1081.382812 C 1156.328125 1079.273438 1156.171875 1077.160156 1156.070312 1075.042969 C 1155.964844 1072.929688 1155.914062 1070.8125 1155.914062 1068.691406 C 1155.914062 1066.574219 1155.964844 1064.457031 1156.070312 1062.339844 C 1156.171875 1060.226562 1156.328125 1058.113281 1156.535156 1056.003906 C 1156.746094 1053.894531 1157.003906 1051.792969 1157.316406 1049.699219 C 1157.625 1047.601562 1157.988281 1045.515625 1158.402344 1043.4375 C 1158.8125 1041.359375 1159.277344 1039.292969 1159.792969 1037.238281 C 1160.308594 1035.183594 1160.871094 1033.144531 1161.488281 1031.117188 C 1162.101562 1029.089844 1162.765625 1027.078125 1163.480469 1025.082031 C 1164.195312 1023.085938 1164.957031 1021.113281 1165.765625 1019.15625 C 1166.578125 1017.195312 1167.4375 1015.261719 1168.34375 1013.34375 C 1169.246094 1011.429688 1170.199219 1009.539062 1171.199219 1007.671875 C 1172.199219 1005.800781 1173.242188 1003.960938 1174.332031 1002.140625 C 1175.417969 1000.324219 1176.550781 998.535156 1177.730469 996.773438 C 1178.90625 995.011719 1180.125 993.28125 1181.386719 991.578125 C 1182.648438 989.878906 1183.953125 988.207031 1185.296875 986.570312 C 1186.640625 984.933594 1188.023438 983.328125 1189.449219 981.757812 C 1190.871094 980.191406 1192.332031 978.65625 1193.828125 977.15625 C 1195.328125 975.660156 1196.859375 974.199219 1198.429688 972.777344 C 1200 971.355469 1201.601562 969.96875 1203.242188 968.625 C 1204.878906 967.28125 1206.546875 965.980469 1208.25 964.71875 C 1209.953125 963.457031 1211.683594 962.234375 1213.445312 961.058594 C 1215.207031 959.882812 1216.996094 958.75 1218.8125 957.660156 C 1220.628906 956.570312 1222.472656 955.527344 1224.339844 954.527344 C 1226.210938 953.53125 1228.101562 952.578125 1230.015625 951.671875 C 1231.929688 950.765625 1233.867188 949.90625 1235.824219 949.097656 C 1237.78125 948.285156 1239.757812 947.523438 1241.753906 946.808594 C 1243.746094 946.097656 1245.757812 945.433594 1247.785156 944.816406 C 1249.8125 944.203125 1251.855469 943.636719 1253.910156 943.121094 C 1255.964844 942.609375 1258.03125 942.144531 1260.109375 941.730469 C 1262.1875 941.316406 1264.273438 940.953125 1266.367188 940.644531 C 1268.464844 940.332031 1270.566406 940.074219 1272.675781 939.867188 C 1274.785156 939.660156 1276.894531 939.503906 1279.011719 939.398438 C 1281.128906 939.296875 1283.246094 939.242188 1285.363281 939.242188 C 1287.480469 939.242188 1289.597656 939.296875 1291.714844 939.398438 C 1293.832031 939.503906 1295.941406 939.660156 1298.050781 939.867188 C 1300.160156 940.074219 1302.261719 940.332031 1304.355469 940.644531 C 1306.453125 940.953125 1308.539062 941.316406 1310.617188 941.730469 C 1312.695312 942.144531 1314.761719 942.609375 1316.816406 943.121094 C 1318.871094 943.636719 1320.914062 944.203125 1322.941406 944.816406 C 1324.96875 945.433594 1326.980469 946.097656 1328.972656 946.808594 C 1330.96875 947.523438 1332.945312 948.285156 1334.902344 949.097656 C 1336.859375 949.90625 1338.792969 950.765625 1340.710938 951.671875 C 1342.625 952.578125 1344.515625 953.53125 1346.386719 954.527344 C 1348.253906 955.527344 1350.097656 956.570312 1351.914062 957.660156 C 1353.730469 958.75 1355.519531 959.882812 1357.28125 961.058594 C 1359.042969 962.234375 1360.773438 963.457031 1362.476562 964.71875 C 1364.179688 965.980469 1365.847656 967.28125 1367.484375 968.625 C 1369.121094 969.96875 1370.726562 971.355469 1372.296875 972.777344 C 1373.867188 974.199219 1375.398438 975.660156 1376.898438 977.15625 C 1378.394531 978.65625 1379.855469 980.191406 1381.277344 981.757812 C 1382.703125 983.328125 1384.085938 984.933594 1385.429688 986.570312 C 1386.773438 988.207031 1388.074219 989.878906 1389.335938 991.578125 C 1390.601562 993.28125 1391.820312 995.011719 1392.996094 996.773438 C 1394.171875 998.535156 1395.304688 1000.324219 1396.394531 1002.140625 C 1397.484375 1003.960938 1398.527344 1005.800781 1399.527344 1007.671875 C 1400.527344 1009.539062 1401.476562 1011.429688 1402.382812 1013.34375 C 1403.289062 1015.261719 1404.148438 1017.195312 1404.957031 1019.15625 C 1405.769531 1021.113281 1406.53125 1023.085938 1407.246094 1025.082031 C 1407.960938 1027.078125 1408.625 1029.089844 1409.238281 1031.117188 C 1409.855469 1033.144531 1410.417969 1035.183594 1410.933594 1037.238281 C 1411.449219 1039.292969 1411.910156 1041.359375 1412.324219 1043.4375 C 1412.738281 1045.515625 1413.101562 1047.601562 1413.410156 1049.699219 C 1413.722656 1051.792969 1413.980469 1053.894531 1414.191406 1056.003906 C 1414.398438 1058.113281 1414.554688 1060.226562 1414.65625 1062.339844 C 1414.761719 1064.457031 1414.8125 1066.574219 1414.8125 1068.691406 Z M 1414.8125 1068.691406 " fill-opacity="1" fill-rule="nonzero"/></g></svg>