<svg xmlns="http://www.w3.org/2000/svg" xmlns:xlink="http://www.w3.org/1999/xlink" width="2000" zoomAndPan="magnify" viewBox="0 0 1500 1499.999933" height="2000" preserveAspectRatio="xMidYMid meet" version="1.0"><defs><g/><clipPath id="7148fd9140"><path d="M 67 613 L 419 613 L 419 933.941406 L 67 933.941406 Z M 67 613 " clip-rule="nonzero"/></clipPath><clipPath id="aeb46d9bae"><rect x="0" width="943" y="0" height="380"/></clipPath></defs><g clip-path="url(#7148fd9140)"><path fill="#672ddb" d="M 100.285156 933.613281 C 95.992188 933.613281 91.53125 932.785156 87.402344 930.96875 C 70.558594 923.871094 62.796875 904.382812 69.898438 887.703125 L 159.074219 677.8125 C 160.558594 674.511719 162.375 671.371094 164.851562 668.730469 L 165.679688 667.738281 C 173.109375 659.316406 184.339844 655.355469 195.402344 657.171875 C 206.46875 658.988281 215.882812 666.253906 220.503906 676.492188 L 264.101562 775.574219 L 353.277344 629.097656 C 358.558594 620.34375 367.644531 614.566406 377.882812 613.410156 C 388.121094 612.253906 398.195312 616.050781 405.292969 623.316406 L 407.441406 625.628906 C 413.222656 631.738281 416.523438 639.667969 416.6875 648.089844 L 418.339844 767.484375 C 418.671875 785.648438 403.972656 800.675781 385.808594 801.007812 C 367.644531 801.335938 352.617188 786.640625 352.285156 768.472656 L 352.121094 757.742188 L 287.714844 863.59375 C 281.277344 874.164062 269.550781 880.109375 257.332031 879.28125 C 245.109375 878.457031 234.210938 870.859375 229.257812 859.628906 L 190.613281 772.105469 L 130.503906 913.464844 C 125.21875 926.015625 113 933.613281 100.285156 933.613281 Z M 100.285156 933.613281 " fill-opacity="1" fill-rule="nonzero"/></g><path fill="#672ddb" d="M 419 858.308594 C 419 859.445312 418.945312 860.578125 418.835938 861.707031 C 418.722656 862.839844 418.554688 863.960938 418.335938 865.074219 C 418.113281 866.1875 417.835938 867.289062 417.507812 868.375 C 417.179688 869.464844 416.796875 870.53125 416.359375 871.582031 C 415.925781 872.628906 415.441406 873.65625 414.90625 874.65625 C 414.371094 875.660156 413.789062 876.632812 413.15625 877.574219 C 412.527344 878.519531 411.851562 879.429688 411.128906 880.308594 C 410.410156 881.1875 409.648438 882.027344 408.84375 882.832031 C 408.039062 883.632812 407.199219 884.394531 406.320312 885.117188 C 405.445312 885.835938 404.53125 886.511719 403.589844 887.144531 C 402.644531 887.773438 401.671875 888.359375 400.667969 888.894531 C 399.667969 889.429688 398.640625 889.914062 397.59375 890.347656 C 396.542969 890.785156 395.476562 891.164062 394.390625 891.496094 C 393.300781 891.824219 392.203125 892.101562 391.085938 892.320312 C 389.972656 892.542969 388.851562 892.710938 387.722656 892.820312 C 386.589844 892.933594 385.457031 892.988281 384.320312 892.988281 C 383.1875 892.988281 382.054688 892.933594 380.921875 892.820312 C 379.792969 892.710938 378.671875 892.542969 377.554688 892.320312 C 376.441406 892.101562 375.34375 891.824219 374.253906 891.496094 C 373.167969 891.164062 372.101562 890.785156 371.050781 890.347656 C 370 889.914062 368.976562 889.429688 367.972656 888.894531 C 366.972656 888.359375 366 887.773438 365.054688 887.144531 C 364.109375 886.511719 363.199219 885.835938 362.320312 885.117188 C 361.445312 884.394531 360.601562 883.632812 359.800781 882.832031 C 358.996094 882.027344 358.234375 881.1875 357.515625 880.308594 C 356.792969 879.429688 356.117188 878.519531 355.488281 877.574219 C 354.855469 876.632812 354.273438 875.660156 353.738281 874.65625 C 353.203125 873.65625 352.71875 872.628906 352.28125 871.582031 C 351.847656 870.53125 351.464844 869.464844 351.136719 868.375 C 350.804688 867.289062 350.53125 866.1875 350.308594 865.074219 C 350.085938 863.960938 349.921875 862.839844 349.808594 861.707031 C 349.699219 860.578125 349.644531 859.445312 349.644531 858.308594 C 349.644531 857.171875 349.699219 856.039062 349.808594 854.910156 C 349.921875 853.78125 350.085938 852.65625 350.308594 851.542969 C 350.53125 850.429688 350.804688 849.328125 351.136719 848.242188 C 351.464844 847.15625 351.847656 846.085938 352.28125 845.039062 C 352.71875 843.988281 353.203125 842.964844 353.738281 841.960938 C 354.273438 840.960938 354.855469 839.988281 355.488281 839.042969 C 356.117188 838.097656 356.792969 837.1875 357.515625 836.308594 C 358.234375 835.429688 358.996094 834.589844 359.800781 833.789062 C 360.601562 832.984375 361.445312 832.222656 362.320312 831.503906 C 363.199219 830.78125 364.109375 830.105469 365.054688 829.476562 C 366 828.84375 366.972656 828.261719 367.972656 827.726562 C 368.976562 827.191406 370 826.703125 371.050781 826.269531 C 372.101562 825.835938 373.167969 825.453125 374.253906 825.125 C 375.34375 824.792969 376.441406 824.519531 377.554688 824.296875 C 378.671875 824.074219 379.792969 823.910156 380.921875 823.796875 C 382.054688 823.6875 383.1875 823.628906 384.320312 823.628906 C 385.457031 823.628906 386.589844 823.6875 387.722656 823.796875 C 388.851562 823.910156 389.972656 824.074219 391.085938 824.296875 C 392.203125 824.519531 393.300781 824.792969 394.390625 825.125 C 395.476562 825.453125 396.542969 825.835938 397.59375 826.269531 C 398.640625 826.703125 399.667969 827.191406 400.667969 827.726562 C 401.671875 828.261719 402.644531 828.84375 403.589844 829.476562 C 404.53125 830.105469 405.445312 830.78125 406.320312 831.503906 C 407.199219 832.222656 408.039062 832.984375 408.84375 833.789062 C 409.648438 834.589844 410.410156 835.429688 411.128906 836.308594 C 411.851562 837.1875 412.527344 838.097656 413.15625 839.042969 C 413.789062 839.988281 414.371094 840.960938 414.90625 841.960938 C 415.441406 842.964844 415.925781 843.988281 416.359375 845.039062 C 416.796875 846.085938 417.179688 847.15625 417.507812 848.242188 C 417.835938 849.328125 418.113281 850.429688 418.335938 851.542969 C 418.554688 852.65625 418.722656 853.78125 418.835938 854.910156 C 418.945312 856.039062 419 857.171875 419 858.308594 Z M 419 858.308594 " fill-opacity="1" fill-rule="nonzero"/><g transform="matrix(1, 0, 0, 1, 478, 551)"><g clip-path="url(#aeb46d9bae)"><g fill="#ffffff" fill-opacity="1"><g transform="translate(0.361799, 288.622286)"><g><path d="M 112.078125 3.5 C 91.503906 3.5 73.84375 -0.914062 59.09375 -9.75 C 44.34375 -18.582031 32.988281 -30.90625 25.03125 -46.71875 C 17.070312 -62.539062 13.09375 -80.832031 13.09375 -101.59375 C 13.09375 -122.363281 17.070312 -140.703125 25.03125 -156.609375 C 32.988281 -172.523438 44.34375 -184.945312 59.09375 -193.875 C 73.84375 -202.800781 91.503906 -207.265625 112.078125 -207.265625 C 136.523438 -207.265625 156.5625 -201.195312 172.1875 -189.0625 C 187.8125 -176.9375 197.566406 -159.910156 201.453125 -137.984375 L 160.40625 -137.984375 C 157.875 -149.046875 152.484375 -157.726562 144.234375 -164.03125 C 135.992188 -170.34375 125.082031 -173.5 111.5 -173.5 C 92.664062 -173.5 77.910156 -167.09375 67.234375 -154.28125 C 56.566406 -141.476562 51.234375 -123.914062 51.234375 -101.59375 C 51.234375 -79.28125 56.566406 -61.765625 67.234375 -49.046875 C 77.910156 -36.335938 92.664062 -29.984375 111.5 -29.984375 C 125.082031 -29.984375 135.992188 -32.941406 144.234375 -38.859375 C 152.484375 -44.773438 157.875 -52.976562 160.40625 -63.46875 L 201.453125 -63.46875 C 197.566406 -42.5 187.8125 -26.09375 172.1875 -14.25 C 156.5625 -2.414062 136.523438 3.5 112.078125 3.5 Z M 112.078125 3.5 "/></g></g></g><g fill="#ffffff" fill-opacity="1"><g transform="translate(201.805039, 288.622286)"><g><path d="M 72.484375 0 L 72.484375 -72.484375 L 4.078125 -203.78125 L 46.28125 -203.78125 L 91.40625 -109.75 L 136.234375 -203.78125 L 177.875 -203.78125 L 109.75 -72.484375 L 109.75 0 Z M 72.484375 0 "/></g></g></g><g fill="#ffffff" fill-opacity="1"><g transform="translate(370.644689, 288.622286)"><g><path d="M 19.796875 0 L 19.796875 -203.78125 L 57.0625 -203.78125 L 152.828125 -60.265625 L 152.828125 -203.78125 L 190.09375 -203.78125 L 190.09375 0 L 152.828125 0 L 57.0625 -143.21875 L 57.0625 0 Z M 19.796875 0 "/></g></g></g><g fill="#ffffff" fill-opacity="1"><g transform="translate(567.430266, 288.622286)"><g><path d="M 19.796875 0 L 19.796875 -203.78125 L 57.0625 -203.78125 L 57.0625 0 Z M 19.796875 0 "/></g></g></g><g fill="#ffffff" fill-opacity="1"><g transform="translate(631.181542, 288.622286)"><g/></g></g><g fill="#ffffff" fill-opacity="1"><g transform="translate(687.364135, 288.622286)"><g><path d="M 6.703125 0 L 81.21875 -203.78125 L 123.140625 -203.78125 L 197.65625 0 L 158.078125 0 L 141.765625 -47.15625 L 62.296875 -47.15625 L 45.703125 0 Z M 72.484375 -76.265625 L 131.578125 -76.265625 L 101.890625 -160.984375 Z M 72.484375 -76.265625 "/></g></g></g><g fill="#ffffff" fill-opacity="1"><g transform="translate(878.327632, 288.622286)"><g><path d="M 19.796875 0 L 19.796875 -203.78125 L 57.0625 -203.78125 L 57.0625 0 Z M 19.796875 0 "/></g></g></g></g></g></svg>